<?xml version="1.0" standalone="no"?> <!DOCTYPE svg PUBLIC "-//W3C//DTD SVG 1.0//EN" "http://www.w3.org/TR/2001/REC-SVG-20010904/DTD/svg10.dtd" > <svg xmlns="http://www.w3.org/2000/svg" width="100%" height="100%">
<defs >
<font id="18909helveticalt" horiz-adv-x="500" ><font-face
    font-family="Helvetica-Light"
    units-per-em="1000"
    panose-1="2 11 4 0 0 0 0 0 0 0"
    ascent="720"
    descent="204"
    alphabetic="0" />
<missing-glyph horiz-adv-x="502" d="M-1 0H499V500H-1V0ZM9 10V490H489V10H9Z" />
<glyph unicode=" " glyph-name="space" horiz-adv-x="278" />
<glyph unicode="!" glyph-name="exclam" horiz-adv-x="333" d="M144 181H189L203 496V720H130V496L144 181ZM203 0V88H130V0H203Z" />
<glyph unicode="&quot;" glyph-name="quotedbl" horiz-adv-x="278" d="M57 494H109V720H57V494ZM168 494H220V720H168V494Z" />
<glyph unicode="#" glyph-name="numbersign" horiz-adv-x="556" d="M504 287H402L422 427H530V486H430L461 698H402L371 486H235L267 698H207L175 486H55V427H167L146 287H27V228H137L103 0H162L196 228H333L302 0H361L393 228H504V287ZM363 427L343 287H205L227
427H363Z" />
<glyph unicode="$" glyph-name="dollar" horiz-adv-x="556" d="M255 394Q222 403 200 412T159 436T131 472T120 526Q120 581 159 616T255 651V394ZM302 322Q339 314 365 305T411 281T442 241T454 180Q454 118 410 77T302 35V322ZM302 -19Q342 -18 380 -5T450 33T500
92T518 169Q518 224 503 261T461 321T396 358T302 385V651Q357 651 394 617T432 529H497Q494 612 441 658T302 705V766H256V705Q214 705 178 692T114 655T72 597T56 523Q56 478 71 446T112 392T173 357T255 332V35Q188 39 145 87T102 203H37Q39 171 42 154Q60 72
115 29T256 -19V-95H302V-19Z" />
<glyph unicode="%" glyph-name="percent" horiz-adv-x="889" d="M658 331Q625 331 595 318T541 282T505 229T492 166Q492 132 505 102T541 49T594 13T658 0Q692 0 722 13T774 49T808 102T821 166Q821 199 809 229T774 282T721 318T658 331ZM657 274Q701 274 732
242T764 166Q764 122 732 90T657 57Q614 57 582 89T549 164Q549 209 580 241T657 274ZM398 532Q398 566 385 596T349 649T296 685T232 698Q199 698 169 685T116 649T80 596T67 532Q67 499 80 469T115 416T168 380T232 367Q266 367 296 380T349 415T385 468T398
532ZM232 424Q188 424 156 456T124 532Q124 576 156 608T232 641Q276 641 308 609T341 532Q341 489 309 457T232 424ZM668 705H616L219 -14H271L668 705Z" />
<glyph unicode="&amp;" glyph-name="ampersand" horiz-adv-x="667" d="M454 131Q415 85 371 60T271 35Q201 35 155 77T109 190Q109 247 148 296T249 375L454 131ZM378 540Q365 511 341 492T277 448L272 445Q259 460 248 475T224 510T205 547T197 580Q197 619 225
642T293 666Q335 666 360 639T386 576Q386 557 378 540ZM307 400H308Q344 422 366 437T408 473T438 520T449 581Q449 639 407 679T298 720Q229 720 183 683T136 579Q136 536 157 498T213 418Q136 382 89 327T41 195Q41 148 58 108T106 40T178 -3T266 -19Q339 -19
393 5T493 85L563 0H644L527 138Q552 177 563 224T577 326H518Q518 283 512 249T488 186L307 400Z" />
<glyph unicode="&apos;" glyph-name="quotesingle" horiz-adv-x="222" d="M85 494H137V720H85V494Z" />
<glyph unicode="(" glyph-name="parenleft" horiz-adv-x="333" d="M226 739Q140 624 98 516T55 276Q55 206 66 146T98 30T151 -77T226 -191H277Q205 -84 165 33T124 271Q124 394 164 513T277 739H226Z" />
<glyph unicode=")" glyph-name="parenright" horiz-adv-x="333" d="M107 -191Q193 -76 235 32T278 272Q278 342 267 402T235 518T182 625T107 739H56Q128 632 168 515T209 277Q209 154 169 35T56 -191H107Z" />
<glyph unicode="*" glyph-name="asterisk" horiz-adv-x="389" d="M62 646L44 604L156 564L79 463L114 436L192 542L266 434L305 458L230 564L344 601L329 645L215 603V720H173V603L62 646Z" />
<glyph unicode="+" glyph-name="plus" horiz-adv-x="660" d="M300 280H80V220H300V0H360V220H580V280H360V500H300V280Z" />
<glyph unicode="," glyph-name="comma" horiz-adv-x="278" d="M175 88H102V0H136V-34Q136 -61 127 -76T102 -100V-137Q135 -127 155 -100T175 -30V88Z" />
<glyph unicode="-" glyph-name="hyphen" horiz-adv-x="333" d="M40 291V229H293V291H40Z" />
<glyph unicode="." glyph-name="period" horiz-adv-x="278" d="M175 0V88H102V0H175Z" />
<glyph unicode="/" glyph-name="slash" horiz-adv-x="278" d="M288 739H232L-3 -90H53L288 739Z" />
<glyph unicode="0" glyph-name="zero" horiz-adv-x="556" d="M452 347Q452 286 446 234T421 137T368 67T278 40Q228 40 195 61T141 121T112 214T103 340Q103 404 111 458T138 556T191 625T276 651Q330 651 365 626T419 559T445 464T452 347ZM278 705Q205 705 158
676T85 596T49 484T39 347Q39 268 49 204T86 91T160 14T278 -14Q348 -14 395 14T468 90T505 201T516 340Q516 412 507 474T474 588T401 673T278 705Z" />
<glyph unicode="1" glyph-name="one" horiz-adv-x="556" d="M302 0H366V705H315Q307 661 291 634T251 594T198 575T120 566V524H302V0Z" />
<glyph unicode="2" glyph-name="two" horiz-adv-x="556" d="M137 474Q137 549 180 600T290 651Q357 651 401 612T445 506Q445 471 434 444T403 397T359 360T293 319Q230 282 187 251T103 172Q72 136 61 96T48 0H509V54H116Q118 99 142 131T208 196Q234 216 303
254Q353 282 386 303T449 353T497 421T515 510Q515 595 458 650T298 705Q194 705 132 642T69 474H137Z" />
<glyph unicode="3" glyph-name="three" horiz-adv-x="556" d="M221 340Q225 340 239 341Q251 341 256 341Q342 341 393 307T448 199Q448 167 435 138T398 87T342 53T273 40Q193 40 146 83T98 204H34Q45 83 103 35T285 -14Q391 -11 451 49T512 200Q512 226 507
251T487 300T449 343T387 374Q487 417 487 531Q487 616 431 660T286 705Q235 705 196 696T126 658Q58 594 58 500H122Q122 566 164 608T273 651Q338 651 380 620T423 527Q423 452 372 422T221 392V340Z" />
<glyph unicode="4" glyph-name="four" horiz-adv-x="556" d="M358 0H422V174H520V228H422V698H364L36 229V174H358V0ZM358 602V228H99L358 602Z" />
<glyph unicode="5" glyph-name="five" horiz-adv-x="556" d="M35 183Q39 130 59 92T112 31T188 -3T283 -14Q327 -14 367 2T438 48T488 123T506 220Q506 327 444 390T283 453Q235 453 202 444T128 407L172 644H468V698H118L61 333L114 326Q170 399 267 399Q346
399 394 350T442 220Q442 143 396 92T273 40Q202 40 156 77T99 183H35Z" />
<glyph unicode="6" glyph-name="six" horiz-adv-x="556" d="M503 532Q493 615 438 660T297 705Q223 705 173 671T94 581T53 458T41 323Q41 233 59 168T110 62T188 4T288 -14Q395 -14 454 47T514 215Q514 321 455 381T290 442Q253 442 225 433T176 409T140 377T105
332Q110 401 117 450T145 546T203 622T303 651Q358 651 392 620T437 532H503ZM288 388Q369 388 409 344T450 217Q450 183 441 152T413 96T363 55T289 40Q247 40 217 55T167 95T138 151T129 213Q129 287 172 337T288 388Z" />
<glyph unicode="7" glyph-name="seven" horiz-adv-x="556" d="M59 634H431Q380 571 333 493T246 330T182 160T152 0H222Q225 57 242 130T294 290T383 467T508 638V698H59V634Z" />
<glyph unicode="8" glyph-name="eight" horiz-adv-x="556" d="M279 345Q353 345 400 307T448 198Q448 129 401 85T283 40Q204 40 156 83T108 194Q108 269 155 307T279 345ZM276 651Q348 651 383 622T419 538Q419 467 382 433T283 399Q220 399 177 431T133 524Q133
584 173 617T276 651ZM167 379Q108 356 76 307T44 194Q44 144 63 105T115 40T186 0T264 -14Q378 -14 445 42T512 200Q512 261 479 307T387 375Q483 422 483 533Q483 577 466 609T418 663T350 695T270 705Q228 705 191 692T127 655T84 600T69 533Q69 474 90 444T167
379Z" />
<glyph unicode="9" glyph-name="nine" horiz-adv-x="556" d="M53 155Q61 72 116 29T258 -14Q374 -14 444 80T515 349Q515 427 503 491T462 603T385 678T268 705Q157 705 99 641T41 472Q41 369 100 307T259 245Q382 245 449 355L451 353Q448 293 440 242T412 145T353
69T255 40Q141 40 118 155H53ZM268 651Q342 650 384 602T426 474Q426 400 384 350T268 299Q191 299 148 344T105 470Q105 554 146 602T268 651Z" />
<glyph unicode=":" glyph-name="colon" horiz-adv-x="278" d="M175 0V88H102V0H175ZM175 404V492H102V404H175Z" />
<glyph unicode=";" glyph-name="semicolon" horiz-adv-x="278" d="M175 88H102V0H136V-34Q136 -61 127 -76T102 -100V-137Q135 -127 155 -100T175 -30V88ZM175 404V492H102V404H175Z" />
<glyph unicode="&lt;" glyph-name="less" horiz-adv-x="660" d="M159 255L580 441V505L80 282V229L580 -6V58L159 255Z" />
<glyph unicode="=" glyph-name="equal" horiz-adv-x="660" d="M580 378H80V318H580V378ZM580 184H80V124H580V184Z" />
<glyph unicode="&gt;" glyph-name="greater" horiz-adv-x="660" d="M580 282L80 505V441L501 255L80 58V-6L580 229V282Z" />
<glyph unicode="?" glyph-name="question" d="M274 182Q274 226 277 252T295 301Q309 323 327 342T375 388Q424 433 448 467T472 551Q472 637 414 688T254 739Q208 739 168 725T99 683T54 618T37 535Q37 530 38 526Q38 519 38 516H99Q99 591 140 638T252 685Q324
685 366 649T408 556Q408 518 384 486T312 408Q284 382 271 368Q237 332 227 291T216 182H274ZM283 0V88H210V0H283Z" />
<glyph unicode="@" glyph-name="at" horiz-adv-x="800" d="M684 167Q639 103 568 67T419 31Q353 31 295 56T192 125T124 230T100 356Q100 423 123 484T189 591T290 663T417 689Q474 689 525 671T615 618T677 534T700 426Q700 387 687 344T651 264T600 205T541
183Q512 183 512 211Q512 228 524 264L625 566H558L543 520Q528 551 498 568T431 586Q378 586 332 559T253 487T201 388T183 283Q183 219 221 176T322 133Q354 133 386 146T441 183Q450 158 474 145T527 131Q567 131 608 154T684 218T739 313T760 423Q760 490 734
548T660 649T549 715T415 739Q340 739 272 710T152 629T70 509T40 363Q40 285 68 216T149 93T271 11T419 -19Q519 -19 607 31T743 167H684ZM337 196Q301 196 280 223T259 288Q259 323 271 364T307 443T362 503T433 527Q463 527 482 506T502 454Q502 420 489 376T453
290T400 223T337 196Z" />
<glyph unicode="A" glyph-name="A" horiz-adv-x="667" d="M85 0L170 226H498L581 0H651L375 720H298L15 0H85ZM334 662L475 284H193L334 662Z" />
<glyph unicode="B" glyph-name="B" horiz-adv-x="667" d="M149 344H330Q382 344 420 339T485 318T527 275T542 203Q542 114 493 86T322 58H149V344ZM149 662H306Q418 662 463 635T509 539Q509 471 466 437T321 402H149V662ZM375 0Q428 0 471 11T545 46T593 109T610
203Q610 276 573 323T462 382V384Q511 392 544 430T577 539Q577 624 520 672T341 720H81V0H375Z" />
<glyph unicode="C" glyph-name="C" horiz-adv-x="722" d="M662 511Q645 621 571 680T383 739Q309 739 249 718T143 652T73 533T48 360Q48 281 65 213T121 93T218 11T358 -19Q428 -19 481 0T572 55T633 136T670 237H599Q578 147 520 93T371 39Q300 39 251 65T172
137T129 240T116 362Q116 427 130 484T176 586T254 656T365 681Q460 681 516 641T592 511H662Z" />
<glyph unicode="D" glyph-name="D" horiz-adv-x="722" d="M327 0Q410 0 473 18T582 88Q628 138 648 210T669 361Q669 400 663 442T644 526T607 605T549 666Q503 699 452 709T327 720H81V0H327ZM149 662H312Q365 662 406 657T477 635Q513 616 537 586T576 520T595
443T601 361Q601 320 596 281T577 205T539 139T481 91Q443 71 404 65T312 58H149V662Z" />
<glyph unicode="E" glyph-name="E" horiz-adv-x="611" d="M570 0V58H149V344H520V402H149V662H560V720H81V0H570Z" />
<glyph unicode="F" glyph-name="F" horiz-adv-x="556" d="M142 0V344H502V402H142V662H538V720H74V0H142Z" />
<glyph unicode="G" glyph-name="G" horiz-adv-x="778" d="M630 314Q628 222 599 165Q566 100 507 70T382 39Q322 39 273 62T190 127T139 223T121 337Q121 415 137 478T186 586T270 656T391 681Q474 681 537 636T617 511H687Q664 623 584 681T386 739Q303 739 240
711T136 632T74 513T53 364Q53 178 139 80T368 -19Q469 -19 533 17T637 123V0H695V372H387V314H630Z" />
<glyph unicode="H" glyph-name="H" horiz-adv-x="722" d="M148 0V353H574V0H642V720H574V411H148V720H80V0H148Z" />
<glyph unicode="I" glyph-name="I" horiz-adv-x="278" d="M173 0V720H105V0H173Z" />
<glyph unicode="J" glyph-name="J" d="M22 228Q22 175 29 132T57 55T116 1T212 -19Q315 -19 365 36T415 197V720H347V199Q347 121 318 82T220 43Q177 43 151 57T111 96T94 152T90 228H22Z" />
<glyph unicode="K" glyph-name="K" horiz-adv-x="667" d="M153 0V278L266 391L566 0H649L315 433L599 720H522L153 347V720H85V0H153Z" />
<glyph unicode="L" glyph-name="L" horiz-adv-x="556" d="M535 0V58H149V720H81V0H535Z" />
<glyph unicode="M" glyph-name="M" horiz-adv-x="833" d="M146 0V642H148L385 0H449L685 642H687V0H755V720H652L420 85H418L182 720H78V0H146Z" />
<glyph unicode="N" glyph-name="N" horiz-adv-x="722" d="M563 0H642V720H574V91H572L156 720H79V0H147V628H149L563 0Z" />
<glyph unicode="O" glyph-name="O" horiz-adv-x="778" d="M53 359Q53 280 74 212T138 91T243 10T388 -19Q469 -19 532 10T638 91T702 211T724 359Q724 439 703 508T638 629T531 710T385 739Q307 739 245 710T140 629T75 508T53 359ZM389 39Q321 39 270 64T186
134T137 236T121 359Q121 424 137 481T186 584T269 655T387 681Q512 681 584 595T656 359Q656 294 641 237T592 135T508 65T389 39Z" />
<glyph unicode="P" glyph-name="P" horiz-adv-x="611" d="M146 0V318H300Q354 318 402 327T490 359T553 421T576 519Q576 562 565 598T528 661T455 704T341 720H78V0H146ZM146 376V662H322Q417 662 462 628T508 524Q508 479 494 450T454 405T390 383T302 376H146Z" />
<glyph unicode="Q" glyph-name="Q" horiz-adv-x="778" d="M611 68Q664 120 691 195T719 359Q719 539 627 639T380 739Q299 739 236 709T131 626T69 504T48 359Q48 280 69 212T133 91T238 10T383 -19Q486 -19 563 30L669 -52L707 -6L611 68ZM464 181L428 134L510
71Q456 39 384 39Q316 39 265 64T181 133T132 235T116 359Q116 423 132 481T181 584T264 655T382 681Q502 681 576 598T651 359Q651 281 629 215T561 107L464 181Z" />
<glyph unicode="R" glyph-name="R" horiz-adv-x="667" d="M148 385V662H364Q400 662 431 656T487 635T525 594T539 528Q539 456 490 421T360 385H148ZM362 327Q422 327 458 310T505 239Q509 220 512 156Q515 98 520 60T537 0H612V7Q598 18 591 50T582 160Q581
197 578 224T567 278T540 324T490 355Q553 383 580 423T607 531Q607 629 545 674T362 720H80V0H148V327H362Z" />
<glyph unicode="S" glyph-name="S" horiz-adv-x="611" d="M43 215Q43 102 115 42T304 -19Q428 -19 497 36T567 191Q567 246 547 283T493 341T422 374T324 399Q278 409 249 417T194 438T151 472T128 522Q126 533 126 543Q126 600 171 640T304 681Q379 681 430 642T481
524H546Q546 617 483 678T304 739Q189 739 125 683T60 546Q60 493 80 457T133 399T203 366T299 340Q349 328 381 319T440 293T483 251T499 188Q499 124 453 82T316 39Q227 39 172 81T109 215H43Z" />
<glyph unicode="T" glyph-name="T" horiz-adv-x="556" d="M16 662H244V0H312V662H540V720H16V662Z" />
<glyph unicode="U" glyph-name="U" horiz-adv-x="722" d="M82 271Q82 131 152 56T361 -19Q499 -19 569 55T640 271V720H572V291Q572 161 524 100T361 39Q250 39 200 98T150 291V720H82V271Z" />
<glyph unicode="V" glyph-name="V" horiz-adv-x="611" d="M268 0H343L593 720H522L306 80L89 720H18L268 0Z" />
<glyph unicode="W" glyph-name="W" horiz-adv-x="889" d="M482 720H406L239 96H237L82 720H14L200 0H275L442 636H444L611 0H686L875 720H805L648 96H646L482 720Z" />
<glyph unicode="X" glyph-name="X" horiz-adv-x="611" d="M514 0H592L345 370L581 720H502L304 417L107 720H28L266 370L18 0H95L304 318L514 0Z" />
<glyph unicode="Y" glyph-name="Y" horiz-adv-x="611" d="M90 720H12L269 309V0H337V314L598 720H519L302 373L90 720Z" />
<glyph unicode="Z" glyph-name="Z" horiz-adv-x="611" d="M579 0V58H115L576 663V720H70V662H492L31 57V0H579Z" />
<glyph unicode="[" glyph-name="bracketleft" horiz-adv-x="333" d="M280 -191V-141H155V689H282V739H91V-191H280Z" />
<glyph unicode="\" glyph-name="backslash" horiz-adv-x="278" d="M225 -90H281L46 739H-10L225 -90Z" />
<glyph unicode="]" glyph-name="bracketright" horiz-adv-x="333" d="M242 739H53V689H178V-141H51V-191H242V739Z" />
<glyph unicode="^" glyph-name="asciicircum" horiz-adv-x="660" d="M131 245L328 637L529 245H586L355 698H303L73 245H131Z" />
<glyph unicode="_" glyph-name="underscore" d="M0 -75V-125H500V-75H0Z" />
<glyph unicode="`" glyph-name="grave" horiz-adv-x="333" d="M183 574H234L123 713H45L183 574Z" />
<glyph unicode="a" glyph-name="a" horiz-adv-x="556" d="M411 191Q411 153 396 124T353 77T293 49T222 40Q176 40 143 64T110 133Q110 184 147 211T256 243Q308 247 342 252T411 272V191ZM227 291Q46 267 46 135Q46 64 96 25T219 -14Q275 -14 325 8T412 72Q413
39 423 19T460 -5Q474 -8 487 -8Q498 -8 510 -5T534 2V49Q511 41 498 41Q471 41 471 89V371Q471 456 420 494T283 532Q193 532 135 490T70 361H131Q139 425 177 451T282 478Q349 478 380 450T411 373Q411 354 407 340T389 319Q376 313 353 309T310 302L227 291Z"
/>
<glyph unicode="b" glyph-name="b" horiz-adv-x="611" d="M139 261Q139 305 151 344T186 414T241 461T314 478Q401 478 446 415T491 243Q490 148 441 94T314 40Q232 40 186 102T139 261ZM139 91H141Q166 42 217 14T321 -14Q382 -14 427 6T500 63T541 149T555 258Q555
314 541 363T498 450T426 510T324 532Q268 532 218 507T139 435V720H79V0H139V91Z" />
<glyph unicode="c" glyph-name="c" horiz-adv-x="556" d="M500 355Q487 443 432 487T285 532Q229 532 184 510T109 450T63 362T47 258Q47 200 61 151T105 64T179 7T285 -14Q379 -14 435 37T508 179H444Q433 114 392 77T285 40Q240 40 207 58T153 107T121 177T111
258Q111 300 121 339T152 409T207 459T285 478Q344 478 383 446T439 355H500Z" />
<glyph unicode="d" glyph-name="d" horiz-adv-x="611" d="M472 261Q472 164 426 102T297 40Q219 40 170 94T120 243Q120 351 165 414T297 478Q337 478 369 461T425 414T460 345T472 261ZM472 435Q444 481 394 506T287 532Q230 532 186 511T113 451T70 363T56 258Q56
199 69 150T111 64T184 7T290 -14Q343 -14 394 14T470 91H472V0H532V720H472V435Z" />
<glyph unicode="e" glyph-name="e" horiz-adv-x="556" d="M109 295Q119 374 163 426T283 478Q361 478 404 426T447 295H109ZM511 245Q511 384 451 458T283 532Q229 532 185 511T109 452T62 364T45 257Q45 198 59 149T102 63T177 6T283 -14Q376 -14 429 32T507
159H440Q427 103 385 72T283 40Q200 40 155 98T109 245H511Z" />
<glyph unicode="f" glyph-name="f" horiz-adv-x="278" d="M97 468V0H157V468H257V518H157V582Q157 605 158 620T166 650T185 672T221 680Q237 680 257 675V730Q236 734 207 734Q149 734 123 700T97 600V518H20V468H97Z" />
<glyph unicode="g" glyph-name="g" horiz-adv-x="611" d="M472 257Q472 213 460 174T425 104T370 57T297 40Q210 40 165 104T120 275Q121 370 170 424T297 478Q379 478 425 416T472 257ZM472 427H470Q445 476 394 504T290 532Q229 532 185 512T112 455T70 369T56
260Q56 204 70 155T113 68T186 8T287 -14Q343 -14 393 11T472 83Q472 29 465 -13T438 -88T382 -139T289 -158Q228 -158 187 -138T134 -63H70Q72 -88 85 -114T126 -162T194 -198T289 -212Q360 -212 408 -192T483 -135T521 -53T532 50V518H472V427Z" />
<glyph unicode="h" glyph-name="h" horiz-adv-x="556" d="M132 0V279Q132 311 134 333T145 377Q160 420 198 449T289 478Q360 478 391 444T423 338V0H483V339Q483 380 479 406T457 458Q431 497 390 514T299 532Q249 532 211 511T132 446V720H72V0H132Z" />
<glyph unicode="i" glyph-name="i" horiz-adv-x="222" d="M141 0V518H81V0H141ZM144 631V720H78V631H144Z" />
<glyph unicode="j" glyph-name="j" horiz-adv-x="222" d="M88 518V-77Q88 -115 76 -132T30 -149Q19 -149 5 -147V-200Q22 -204 44 -204Q111 -204 129 -174T148 -69V518H88ZM151 720H85V631H151V720Z" />
<glyph unicode="k" glyph-name="k" d="M128 0V196L226 289L420 0H487L270 331L464 518H382L128 272V720H68V0H128Z" />
<glyph unicode="l" glyph-name="l" horiz-adv-x="222" d="M141 0V720H81V0H141Z" />
<glyph unicode="m" glyph-name="m" horiz-adv-x="833" d="M124 279Q124 317 132 356T158 419Q180 448 210 463T275 478Q336 478 361 448T386 358V0H446V279Q446 317 454 356T480 419Q502 448 532 463T597 478Q658 478 683 448T708 358V0H768V327Q768 372 762 407T739
470T690 515T607 532Q551 532 507 507T438 432Q419 480 386 506T286 532Q235 532 192 508T126 440H124V518H64V0H124V279Z" />
<glyph unicode="n" glyph-name="n" horiz-adv-x="556" d="M132 279Q132 311 134 333T145 377Q160 420 198 449T289 478Q360 478 391 444T423 338V0H483V339Q483 380 479 406T457 458Q431 497 390 514T299 532Q249 532 211 511T132 446V518H72V0H132V279Z" />
<glyph unicode="o" glyph-name="o" horiz-adv-x="556" d="M278 -14Q387 -14 452 61T518 259Q518 379 457 455T278 532Q163 532 101 455T38 259Q38 129 106 59T278 -14ZM454 259Q454 216 444 177T413 107T358 58T278 40Q194 40 148 100T102 259Q102 303 112 342T143
411T199 460T278 478Q324 478 358 462T413 415T444 346T454 259Z" />
<glyph unicode="p" glyph-name="p" horiz-adv-x="611" d="M139 257Q139 354 185 416T314 478Q392 478 441 424T491 275Q491 168 446 104T314 40Q274 40 242 57T186 104T151 173T139 257ZM139 83Q167 37 217 12T324 -14Q382 -14 425 7T498 67T541 155T555 260Q555
319 542 368T500 454T427 511T321 532Q269 532 218 504T141 427H139V518H79V-204H139V83Z" />
<glyph unicode="q" glyph-name="q" horiz-adv-x="611" d="M472 261Q472 164 426 102T297 40Q219 40 170 94T120 243Q120 351 165 414T297 478Q337 478 369 461T425 414T460 345T472 261ZM472 427H470Q445 476 394 504T290 532Q229 532 185 512T112 455T70 369T56
260Q56 204 70 155T113 68T186 8T287 -14Q343 -14 393 11T472 83V-204H532V518H472V427Z" />
<glyph unicode="r" glyph-name="r" horiz-adv-x="333" d="M135 254Q135 300 143 338T170 405T223 450T306 467V532Q239 532 200 507T137 421H135V518H75V0H135V254Z" />
<glyph unicode="s" glyph-name="s" d="M46 162Q50 86 102 36T243 -14Q338 -14 396 25T454 137Q454 176 439 202T397 244T342 270T267 290Q229 299 207 306T165 323T134 349T122 389Q122 430 152 454T239 478Q299 478 335 452T379 369H440Q429 454 378 493T240
532Q156 532 107 491T58 384Q58 345 73 319T114 277T169 254T243 236Q279 229 303 222T347 205T378 178T390 136Q390 96 357 68T262 40Q194 40 158 68T107 162H46Z" />
<glyph unicode="t" glyph-name="t" horiz-adv-x="278" d="M254 47Q226 40 205 40Q170 40 162 55T153 113V468H250V518H153V662H93V518H20V468H93V89Q93 33 116 10T185 -14Q207 -14 243 -5Q252 -3 254 -2V47Z" />
<glyph unicode="u" glyph-name="u" horiz-adv-x="556" d="M423 236Q423 149 381 95T265 40Q196 40 164 75T132 178V518H72V177Q72 135 82 101T113 41T170 1T256 -14Q316 -14 351 9T423 72V72V0H483V518H423V236Z" />
<glyph unicode="v" glyph-name="v" d="M215 0H282L483 518H418L250 74L82 518H17L215 0Z" />
<glyph unicode="w" glyph-name="w" horiz-adv-x="722" d="M396 518H329L209 76L75 518H15L173 0H245L360 435H362L475 0H539L707 518H646L510 80L396 518Z" />
<glyph unicode="x" glyph-name="x" d="M409 0H481L287 268L474 518H398L251 312L108 518H34L217 268L18 0H91L252 224L409 0Z" />
<glyph unicode="y" glyph-name="y" d="M68 -197Q96 -204 125 -204Q182 -204 220 -147Q236 -123 250 -89T289 7L482 518H417L251 73L85 518H18L219 -4Q213 -15 203 -46Q187 -94 170 -120T118 -147Q100 -147 68 -141V-197Z" />
<glyph unicode="z" glyph-name="z" d="M467 0V50H110L454 465V518H56V468H377L33 53V0H467Z" />
<glyph unicode="{" glyph-name="braceleft" horiz-adv-x="333" d="M127 395Q127 341 112 316T45 275V273Q93 264 110 236T127 157V-47Q127 -125 159 -158T279 -191V-189Q232 -176 212 -148T191 -68V138Q191 198 174 230T109 273V275Q158 288 174 323T191 424V616Q191
709 272 737Q187 737 157 702T127 577V395Z" />
<glyph unicode="|" glyph-name="bar" horiz-adv-x="222" d="M81 750V-250H141V750H81Z" />
<glyph unicode="}" glyph-name="braceright" horiz-adv-x="333" d="M203 599Q203 677 171 710T51 743V741Q98 728 118 700T139 620V414Q139 354 156 322T221 279V277Q172 264 156 229T139 128V-64Q139 -157 58 -185Q143 -185 173 -150T203 -25V157Q203 211 218
236T285 277V279Q237 288 220 316T203 395V599Z" />
<glyph unicode="~" glyph-name="asciitilde" horiz-adv-x="660" d="M221 324Q174 324 143 296T80 221L113 174L114 175Q139 218 163 243T221 268Q243 268 285 248Q300 240 305 238Q310 236 314 234Q356 217 387 207T440 196Q486 196 520 227T580 305L540 339Q521
304 496 278T441 252Q425 252 404 259T349 283Q346 285 338 288Q301 305 274 314T221 324Z" />
</font>
</defs>
</svg>
