<?xml version="1.0" standalone="no"?> <!DOCTYPE svg PUBLIC "-//W3C//DTD SVG 1.0//EN" "http://www.w3.org/TR/2001/REC-SVG-20010904/DTD/svg10.dtd" > <svg xmlns="http://www.w3.org/2000/svg" width="100%" height="100%">
<defs >
<font id="scriptbl" horiz-adv-x="805" ><font-face
    font-family="Script MT Bold"
    units-per-em="2048"
    panose-1="3 4 6 2 4 6 7 8 9 4"
    ascent="1950"
    descent="-516"
    alphabetic="0" />
<missing-glyph horiz-adv-x="2048" d="M256 0V1536H1792V0H256ZM384 128H1664V1408H384V128Z" />
<glyph unicode=" " glyph-name="space" horiz-adv-x="512" />
<glyph unicode="!" glyph-name="exclam" horiz-adv-x="662" d="M311 385Q252 479 252 586Q252 674 306 813T377 1018T393 1161Q393 1223 384 1267T375 1317Q375 1335 477 1378T596 1421Q615 1421 632 1362T649 1229Q649 1128 613 1025T491 788T375 591T346 471Q346
467 350 440T354 408Q354 399 311 385ZM408 213Q414 213 414 203Q414 193 383 117T318 9T223 -23Q165 -23 106 5T47 45Q47 48 57 66Q109 136 137 250Q140 274 147 274Q159 274 174 256Q241 193 315 193Q347 193 375 203T408 213Z" />
<glyph unicode="&quot;" glyph-name="quotedbl" horiz-adv-x="901" d="M805 1417Q808 1271 778 1172T641 915L578 905Q638 1071 638 1193Q638 1271 616 1358L805 1417ZM467 1397Q470 1250 440 1152T303 895L240 885Q300 1051 300 1173Q300 1251 279 1337L467 1397Z" />
<glyph unicode="#" glyph-name="numbersign" horiz-adv-x="1368" d="M1282 395H965L881 0H735L821 395H418L336 0H193L274 395H86V539H305L377 889H86V1032H406L492 1430H635L549 1032H950L1034 1430H1178L1092 1032H1282V889H1065L991 539H1282V395ZM922 889H520L449
541H850L922 889Z" />
<glyph unicode="$" glyph-name="dollar" horiz-adv-x="1067" d="M780 1376Q895 1351 959 1311T1024 1229Q1024 1179 926 1024Q889 1024 880 1037T870 1069Q870 1076 875 1120T881 1174Q881 1294 764 1317L639 854Q758 728 815 633T872 430Q872 276 748 138T397
-23L344 -213H266L319 -16Q193 8 119 79T45 168Q45 186 89 280T143 388T168 403Q203 403 203 362L197 268Q197 175 231 127T340 57L489 604Q374 724 321 816T268 1010Q268 1158 383 1270T702 1382L715 1432H795L780 1376ZM688 1325Q592 1322 541 1263T489 1139Q489
1038 580 934L688 1325ZM420 53Q525 64 590 134T655 297Q655 399 549 522L420 53Z" />
<glyph unicode="%" glyph-name="percent" horiz-adv-x="1559" d="M594 1223Q653 1212 711 1212Q796 1212 895 1238T1130 1322Q1375 1427 1407 1427Q1440 1427 1440 1391Q1440 1378 1434 1368L260 -500H90L1198 1268Q890 1139 711 1139Q648 1139 582 1149Q548 966
466 877T274 788Q185 788 127 852T68 1014Q68 1095 116 1204T240 1373T358 1432Q385 1432 385 1403Q385 1386 348 1329Q236 1159 236 1006Q236 944 258 906T317 868Q361 868 425 942T514 1174Q444 1221 444 1298Q444 1351 466 1391T516 1432Q594 1432 594 1223ZM1513
-76Q1516 -122 1508 -131T1473 -141Q1441 -315 1355 -408T1169 -502Q1081 -502 1023 -439T965 -281Q965 -175 1018 -65T1144 94T1251 143Q1280 143 1280 119Q1280 106 1249 55Q1130 -130 1130 -297Q1130 -355 1150 -388T1206 -422Q1252 -422 1316 -347T1409 -115Q1372
-93 1357 -68T1341 6Q1341 66 1361 104T1411 143Q1485 143 1485 -66L1513 -76Z" />
<glyph unicode="&amp;" glyph-name="ampersand" horiz-adv-x="1386" d="M598 807V891Q598 1114 715 1261T1006 1409Q1102 1409 1171 1366T1241 1266Q1241 1233 1176 1184T1096 1135Q1065 1135 1059 1193T1027 1288T958 1325Q904 1325 873 1255T842 1061Q842 863
906 611T1033 252T1171 145Q1242 145 1298 215Q1319 236 1327 236Q1340 236 1355 220T1370 195Q1370 165 1269 71T1049 -23Q959 -23 889 31T752 199Q628 85 533 31T328 -23Q209 -23 133 52T57 246Q57 554 598 807ZM719 272Q640 456 600 727Q454 659 386 582T317
391Q317 288 371 213T498 137Q540 137 586 164T719 272Z" />
<glyph unicode="&apos;" glyph-name="quotesingle" horiz-adv-x="492" d="M467 1417Q470 1271 440 1172T303 915L240 905Q300 1071 300 1193Q300 1271 279 1358L467 1417Z" />
<glyph unicode="(" glyph-name="parenleft" horiz-adv-x="981" d="M950 1448Q606 1129 475 769T344 94Q344 -71 381 -203T502 -477H399Q238 -265 174 -88T109 276Q109 613 284 915T840 1448H950Z" />
<glyph unicode=")" glyph-name="parenright" horiz-adv-x="981" d="M604 1448Q755 1255 826 1076T897 692Q897 369 726 65T164 -477H51Q222 -312 309 -199T481 95T611 475T657 872Q657 1052 621 1179T504 1448H604Z" />
<glyph unicode="*" glyph-name="asterisk" horiz-adv-x="981" d="M965 739Q776 753 567 934Q571 791 639 569L436 496Q426 555 426 608Q426 686 441 745T498 928Q365 887 180 750L41 915Q182 997 371 997Q409 997 479 991Q337 1160 203 1243L322 1425Q462 1318
530 1030Q644 1217 682 1370L891 1315Q825 1139 588 1001Q775 945 952 952L965 739Z" />
<glyph unicode="+" glyph-name="plus" horiz-adv-x="1366" d="M1229 469H760V0H602V469H133V627H602V1096H760V627H1229V469Z" />
<glyph unicode="," glyph-name="comma" horiz-adv-x="492" d="M297 291Q381 240 420 186T459 55Q459 -68 359 -171T66 -344L45 -283Q156 -223 213 -173T270 -53Q270 34 170 74Q135 86 135 98Q135 108 177 146T297 291Z" />
<glyph unicode="-" glyph-name="hyphen" horiz-adv-x="670" d="M626 537L579 428Q544 346 522 329T436 311L215 319Q169 319 135 293Q120 283 110 283Q80 283 90 305L145 434Q166 484 189 499T291 515H456Q546 515 570 535T604 555Q634 555 626 537Z" />
<glyph unicode="." glyph-name="period" horiz-adv-x="406" d="M395 209Q351 66 315 22T205 -23Q115 -23 31 41Q84 123 131 276Q195 222 225 208T297 193Q333 193 395 209Z" />
<glyph unicode="/" glyph-name="slash" horiz-adv-x="811" d="M756 1430L309 -453H78L526 1430H756Z" />
<glyph unicode="0" glyph-name="zero" horiz-adv-x="1067" d="M1012 1024Q1019 1018 1042 1009T1065 979Q1065 949 1055 939T1023 931T997 934Q799 -23 362 -23Q228 -23 147 86T66 377Q66 648 198 912T497 1299T729 1421Q745 1421 745 1386Q745 1360 719 1335Q563
1182 461 889T358 367Q358 255 394 191T494 127Q607 127 719 325T926 950Q776 994 776 1139Q776 1224 823 1323T932 1423Q1022 1423 1022 1206Q1022 1112 1012 1024Z" />
<glyph unicode="1" glyph-name="one" horiz-adv-x="811" d="M436 1225Q277 1092 211 975Q186 934 176 934Q156 934 140 945T123 971Q123 988 175 1063T349 1253T531 1395T684 1423Q733 1423 733 1398Q733 1396 731 1368V1366L646 1029L537 611Q474 372 423 203T352
15T265 -14T113 -25Q61 -25 61 0Q61 23 78 63Q240 502 436 1225Z" />
<glyph unicode="2" glyph-name="two" horiz-adv-x="1069" d="M195 201Q308 236 414 236Q434 236 556 226T702 215Q759 215 795 235T854 316Q861 336 868 336Q886 336 907 327T928 311Q928 278 875 166T765 15T596 -23Q571 -23 421 -11T242 2Q144 2 97 -10T45 -23Q31
-23 31 -4Q31 56 53 114T154 267T387 506L500 610Q634 736 688 851T743 1087Q743 1189 691 1251T553 1313Q472 1313 412 1255T352 1116Q352 1049 418 997Q453 971 453 950Q453 922 377 885T254 848Q216 848 188 884T160 973Q160 1140 320 1281T674 1423Q833 1423
935 1327T1038 1081Q1038 961 971 859T809 681T561 500T326 332T195 201Z" />
<glyph unicode="3" glyph-name="three" horiz-adv-x="1067" d="M1049 1114Q1049 865 692 758Q973 658 973 412Q973 223 814 99T410 -25Q227 -25 129 51T31 266Q31 316 56 340T159 390T258 416Q272 416 281 403T291 371Q291 356 271 309T250 215Q250 147 302 99T430
51Q549 51 618 166T688 428Q688 533 641 602T522 668L451 664Q416 661 416 705Q416 756 430 771T477 786Q560 786 609 798T701 859T769 982T795 1128Q795 1218 740 1275T600 1333Q522 1333 465 1286T408 1176Q408 1152 423 1118T438 1065Q438 1039 368 1002T268
965Q245 965 228 993T211 1061Q211 1188 344 1305T680 1423Q844 1423 946 1337T1049 1114Z" />
<glyph unicode="4" glyph-name="four" horiz-adv-x="1067" d="M786 565Q904 570 981 588L997 592Q1028 592 1028 571Q1028 556 1006 485T972 405T908 392T739 387L686 195Q664 113 646 68T605 10T515 -13T369 -23Q322 -23 322 2Q322 23 336 61L457 389L104 401Q56
403 45 407T33 428Q33 492 54 535Q102 636 198 775Q338 976 524 1164T795 1397Q847 1425 938 1425Q995 1425 995 1395Q995 1382 948 1184L918 1055Q893 950 813 662L786 565ZM711 1231Q614 1164 441 961T143 541Q376 538 504 545Q589 794 711 1231Z" />
<glyph unicode="5" glyph-name="five" horiz-adv-x="1067" d="M1026 1423Q997 1301 953 1242T851 1166T698 1149Q601 1149 469 1165L385 856Q474 879 551 879Q730 879 849 763T969 473Q969 263 811 120T420 -23Q241 -23 137 63T33 250Q33 282 42 301T78 335T166
376T248 403Q272 403 272 379Q272 369 261 309T250 238Q250 158 298 106T422 53Q529 53 605 176T682 479Q682 605 614 676T424 748Q369 748 339 741T299 733Q281 733 281 752Q281 759 293 803L449 1364Q465 1423 498 1423Q505 1423 532 1417Q628 1395 743 1395Q876
1395 1026 1423Z" />
<glyph unicode="6" glyph-name="six" horiz-adv-x="1067" d="M737 850Q842 850 921 754T1001 526Q1001 313 831 145T444 -23Q278 -23 175 104T72 438Q72 702 204 928T532 1288T821 1423Q823 1423 847 1409T872 1384Q872 1375 848 1360Q683 1268 563 1068T382 621T322
252Q322 162 361 107T463 51Q573 51 646 225T719 549Q719 616 684 665T606 715Q580 715 555 706T524 696Q517 696 510 705T502 725Q502 736 584 793T737 850Z" />
<glyph unicode="7" glyph-name="seven" horiz-adv-x="1081" d="M225 1024Q199 1012 176 1012Q154 1012 154 1036Q154 1049 168 1096L225 1282Q239 1324 255 1353T293 1394T376 1414T500 1423Q568 1423 678 1405T850 1386Q936 1386 976 1404T1022 1423Q1029 1423
1036 1415T1044 1399Q1044 1348 899 1067Q771 818 668 560T528 173T473 23T380 -12T221 -25Q174 -25 174 8Q174 57 250 245T623 801Q797 1020 862 1157Q805 1149 762 1149Q737 1149 590 1163T414 1178Q328 1178 288 1142T225 1024Z" />
<glyph unicode="8" glyph-name="eight" horiz-adv-x="1071" d="M967 1124H1028Q1040 1124 1040 1110Q1040 1096 1028 1057Q1012 1049 983 1049Q946 1049 928 1055Q861 932 686 811Q872 612 872 440Q872 259 726 117T389 -25Q238 -25 141 58T43 270Q43 386 121
491T389 715Q256 866 256 1022Q256 1172 358 1283T641 1425Q684 1394 684 1391Q684 1379 651 1366Q573 1329 529 1268T485 1137Q485 1070 520 1012T631 870Q789 962 860 1092Q784 1145 784 1241Q784 1315 824 1369T920 1423Q960 1423 984 1390T1008 1300Q1008 1212
967 1124ZM643 291Q643 380 595 466T442 657Q121 472 121 274Q121 179 195 115T383 51Q496 51 569 119T643 291Z" />
<glyph unicode="9" glyph-name="nine" horiz-adv-x="1067" d="M616 1423Q783 1423 886 1297T989 963Q989 698 857 473T529 112T240 -23Q238 -23 213 -8T188 16Q188 26 213 41Q378 133 498 333T679 780T739 1149Q739 1238 700 1294T598 1350Q488 1350 415 1175T342
852Q342 785 377 736T455 686Q481 686 506 695T537 705Q544 705 551 696T559 676Q559 665 477 608T324 551Q219 551 139 647T59 874Q59 1088 229 1255T616 1423Z" />
<glyph unicode=":" glyph-name="colon" horiz-adv-x="575" d="M561 788Q529 666 489 610T365 553Q289 553 188 616Q237 668 291 854Q356 800 387 783T461 766Q492 766 524 777T561 788ZM403 213Q371 91 332 34T211 -23Q138 -23 37 41Q94 126 137 276Q203 223 235
208T303 193Q319 193 403 213Z" />
<glyph unicode=";" glyph-name="semicolon" horiz-adv-x="662" d="M651 788Q621 666 577 609T457 551Q414 551 383 564T281 621Q346 701 387 852Q431 808 466 788T551 768Q577 768 651 788ZM285 293Q444 196 444 57Q444 -66 344 -170T51 -344L31 -281Q142 -221
199 -171T256 -51Q256 33 156 76Q123 88 123 98Q123 112 162 147T285 293Z" />
<glyph unicode="&lt;" glyph-name="less" horiz-adv-x="1366" d="M1231 16L135 475V618L1231 1077V907L348 547L1231 186V16Z" />
<glyph unicode="=" glyph-name="equal" horiz-adv-x="1366" d="M1231 705H135V862H1231V705ZM1231 231H135V389H1231V231Z" />
<glyph unicode="&gt;" glyph-name="greater" horiz-adv-x="1366" d="M1229 477L135 18V188L1018 547L135 907V1079L1229 618V477Z" />
<glyph unicode="?" glyph-name="question" horiz-adv-x="897" d="M301 383Q254 463 254 522Q254 573 281 613T418 738T571 910T614 1085Q614 1185 564 1245T430 1305Q352 1305 299 1254T246 1126Q246 1088 263 1053T320 1017T360 995Q360 969 288 924T190 879Q157
879 128 930T98 1042Q98 1187 239 1305T555 1423Q694 1423 783 1333T872 1102Q872 961 781 844T483 598Q391 540 364 509T336 432Q336 426 340 397L301 383ZM432 215Q402 92 360 35T231 -23Q154 -23 61 45Q108 101 170 279Q211 235 246 216T338 197Q363 197 432
215Z" />
<glyph unicode="@" glyph-name="at" horiz-adv-x="1704" d="M1704 160Q1588 -126 1368 -276T852 -426Q482 -426 241 -187T0 420Q0 816 264 1076T932 1337Q1242 1337 1433 1157T1624 686Q1624 396 1457 198T1047 0Q956 0 904 46T852 172Q852 224 874 305Q774 134
697 67T541 0Q467 0 423 58T379 217Q379 387 459 552T662 823T877 928Q994 928 1016 778L1049 893L1282 901L1106 295Q1077 191 1077 147Q1077 115 1100 93T1157 70Q1231 70 1334 151T1504 370T1571 668Q1571 936 1398 1106T952 1276Q573 1276 337 1014T100 387Q100
55 313 -159T856 -373Q1103 -373 1323 -238T1645 160H1704ZM684 176Q754 176 862 365T971 729Q971 791 951 824T903 858Q822 858 726 632T629 268Q629 228 644 202T684 176Z" />
<glyph unicode="A" glyph-name="A" horiz-adv-x="1386" d="M1409 221Q1179 -25 987 -25Q881 -25 819 50T750 264Q629 117 536 46T336 -25Q200 -25 118 92T35 406Q35 640 143 888T463 1281T977 1425Q1203 1425 1386 1364V1298Q1237 1124 1137 811T1036 334Q1036
254 1068 210T1159 166Q1263 166 1409 336V221ZM1118 1298Q1026 1348 920 1348Q753 1348 619 1209T408 839T330 440Q330 327 373 257T485 186Q603 186 756 401Q819 965 1118 1298Z" />
<glyph unicode="B" glyph-name="B" horiz-adv-x="1556" d="M1079 780Q1186 780 1235 864T1284 1049Q1284 1187 1193 1269T946 1352Q738 1352 572 1232T406 965Q406 878 500 838Q524 828 524 819V788Q524 766 445 733T340 700Q301 700 261 763T221 895Q221 1014
318 1144T593 1353T1001 1432Q1247 1432 1399 1329T1552 1065Q1552 825 1212 737Q1479 654 1479 410Q1479 232 1346 105T1026 -23Q944 -23 889 10T834 90Q834 121 869 174T934 227Q975 227 983 131Q989 55 1030 55Q1097 55 1148 204T1200 504Q1200 687 1069 707L1079
780ZM1112 1167Q1054 1115 1025 1049T973 788T916 463T798 218T584 40T305 -25Q172 -25 102 31T31 190Q31 227 37 252Q84 295 149 327T236 360Q272 360 272 305Q272 296 264 243T256 178Q256 55 362 55Q469 55 548 194T661 611T757 993T913 1155T1059 1212Q1085
1212 1112 1167Z" />
<glyph unicode="C" glyph-name="C" horiz-adv-x="1153" d="M1176 221Q939 -25 604 -25Q364 -25 211 125T57 512Q57 747 168 959T458 1298T811 1425Q956 1425 1047 1338T1139 1112Q1139 931 1029 799T770 666Q692 666 642 706T592 809Q592 863 635 909Q667 850
723 850Q803 850 871 950T940 1169Q940 1252 902 1301T799 1350Q706 1350 601 1234T425 936T354 590Q354 381 472 247T774 113Q890 113 983 167T1176 336V221Z" />
<glyph unicode="D" glyph-name="D" horiz-adv-x="1556" d="M567 180L695 126Q757 99 796 90T872 80Q1038 80 1138 297T1239 764Q1239 1027 1112 1187T778 1348Q613 1348 469 1230T324 979Q324 880 408 844Q444 827 444 799Q444 770 366 736T270 702Q219 702 180
761T141 893Q141 1084 340 1255T860 1427Q1166 1427 1348 1259T1530 807Q1530 591 1418 397T1115 89T711 -25Q532 -25 377 53Q252 -25 160 -25Q108 -25 73 5T37 78Q37 148 110 196T293 244Q371 244 442 219Q505 271 528 344T574 602T646 893T790 1070T983 1153L1022
1100Q960 1037 930 972T875 693T781 371T567 180Z" />
<glyph unicode="E" glyph-name="E" horiz-adv-x="1067" d="M1090 221Q961 95 831 36T537 -23Q320 -23 190 82T59 358Q59 507 166 619T494 776Q281 857 281 1049Q281 1202 428 1313T782 1425Q931 1425 998 1367T1065 1260Q1065 1230 1015 1167T942 1104Q915 1104
903 1180Q875 1350 766 1350Q681 1350 612 1255T543 1040Q543 848 731 848Q762 848 773 845T784 827Q784 789 769 744T731 698Q724 698 681 703T606 709Q500 709 424 622T348 412Q348 279 437 192T662 104Q774 104 886 164T1090 336V221Z" />
<glyph unicode="F" glyph-name="F" horiz-adv-x="1237" d="M1239 1444Q1215 1309 1164 1249T971 1188L659 1196Q521 1196 436 1143T350 993Q350 903 459 852Q496 835 496 821Q496 793 456 752T362 690Q227 727 227 864Q227 960 303 1104T507 1340T791 1432Q804
1432 933 1422T1090 1411Q1171 1411 1188 1444H1239ZM1196 834L1178 659Q1162 637 1112 617T936 563Q912 301 761 141T381 -20Q220 -20 131 50T41 188Q41 220 110 282T213 344Q238 344 244 326T250 233T288 108T393 57Q595 57 651 475Q559 455 442 389L485 524Q570
597 666 631Q681 792 720 887T850 1073Q969 1088 1012 1090Q978 1024 965 962T948 735Q1079 778 1196 834Z" />
<glyph unicode="G" glyph-name="G" horiz-adv-x="1300" d="M1323 221Q1255 142 1063 43Q1023 -223 886 -368T578 -514Q496 -514 450 -476T403 -371Q403 -185 764 -10Q802 125 838 233Q775 142 655 72T432 2Q264 2 153 147T41 516Q41 751 167 961T498 1298T895
1425Q1067 1425 1174 1327T1282 1073Q1282 905 1161 777T883 649Q791 649 731 694T670 805Q670 845 693 876T748 907Q778 907 778 872Q778 841 801 824T854 807Q934 807 1007 916T1081 1151Q1081 1239 1024 1294T877 1350Q742 1350 616 1230T410 915T330 543Q330
381 400 286T586 190Q782 190 961 467L1149 494Q1184 499 1184 477Q1184 467 1157 391T1083 137Q1238 227 1323 336V221ZM741 -111Q481 -241 481 -367Q481 -434 545 -434Q671 -434 741 -111Z" />
<glyph unicode="H" glyph-name="H" horiz-adv-x="1812" d="M1835 221Q1713 94 1614 35T1409 -25Q1291 -25 1211 79T1130 383Q1130 466 1151 600Q1001 588 967 586Q904 256 746 116T387 -25Q239 -25 143 43T47 176Q47 223 118 283T217 344Q256 344 256 260Q256
53 395 53Q497 53 564 167T672 545Q552 528 434 428Q426 439 420 514Q525 630 698 676Q733 838 786 940T1055 1255Q951 1214 885 1214Q842 1214 778 1237T674 1260Q589 1260 535 1199T481 1073Q481 1009 549 956Q580 937 580 920Q580 890 540 846T465 801Q426 801
393 856T360 979Q360 1127 505 1276T793 1425Q824 1425 913 1400T1034 1374Q1098 1374 1159 1430Q1235 1390 1235 1380Q1235 1366 1175 1306T1075 1133T993 715Q1108 720 1194 733Q1240 888 1293 994T1414 1207T1519 1339T1674 1394T1794 1425Q1806 1425 1806 1419Q1806
1404 1761 1342T1632 1117T1489 770Q1597 788 1710 866Q1723 860 1726 849T1729 791Q1643 687 1452 643Q1411 448 1411 367Q1411 269 1454 212T1569 154Q1627 154 1685 191T1835 336V221Z" />
<glyph unicode="I" glyph-name="I" horiz-adv-x="1237" d="M1061 1257Q963 1217 883 1217Q834 1217 771 1240T676 1264Q601 1264 544 1207T487 1075Q487 1008 551 965Q584 940 584 922Q584 892 545 849T471 805Q431 805 398 859T365 981Q365 1131 509 1278T799
1425Q842 1425 911 1401T1030 1376Q1084 1376 1133 1411Q1155 1425 1167 1425Q1182 1425 1207 1410T1233 1376Q1233 1366 1180 1307Q1100 1220 1069 1117T1006 797T936 445T817 198T627 32T389 -23Q236 -23 143 47T49 182Q49 219 121 281T215 344Q244 344 251 323T258
250Q258 162 297 109T401 55Q496 55 562 155T671 520T784 927T1061 1257Z" />
<glyph unicode="J" glyph-name="J" horiz-adv-x="1067" d="M1090 221Q997 117 725 10Q631 -259 474 -386T176 -514Q112 -514 73 -474T33 -367Q33 -147 461 2Q537 453 573 618T656 879T801 1100T924 1266Q827 1214 760 1214Q720 1214 663 1238T561 1262Q486 1262
429 1206T371 1077Q371 1015 422 976T473 920Q473 905 428 855T356 805Q330 805 290 854T250 979Q250 1130 393 1277T682 1425Q730 1425 786 1399T881 1372Q935 1372 997 1425Q1075 1416 1075 1395Q1075 1381 1030 1309T948 1124T885 829L870 729Q806 277 758 109Q973
182 1090 336V221ZM438 -88Q111 -204 111 -358Q111 -389 130 -409T180 -430Q247 -430 319 -350T438 -88Z" />
<glyph unicode="K" glyph-name="K" horiz-adv-x="1729" d="M1049 1255Q938 1212 862 1212Q808 1212 725 1243T604 1274Q538 1274 491 1223T444 1098Q444 1014 520 950Q545 929 545 918Q545 901 500 855T422 809Q387 809 352 868T317 989Q317 1151 449 1289T735
1427Q794 1427 881 1394T1008 1360Q1068 1360 1114 1409Q1130 1425 1143 1425Q1156 1425 1186 1415T1217 1393Q1217 1384 1161 1313T1074 1158T1016 911L995 788Q935 422 854 274T650 51T385 -23Q250 -23 147 41T43 184Q43 223 111 282T209 342Q256 342 256 266Q259
53 391 53Q596 53 662 523Q691 724 747 873T1049 1255ZM1751 221Q1631 94 1540 36T1348 -23Q1245 -23 1178 53T1110 246Q1110 263 1123 377T1137 514Q1137 609 1098 649Q1086 647 1061 647Q1014 647 1014 688Q1014 748 1076 748L1120 745Q1183 745 1227 804T1311
1026Q1409 1425 1606 1425Q1652 1425 1693 1390T1735 1317Q1735 1294 1698 1222T1640 1149Q1629 1149 1607 1186T1542 1223Q1458 1223 1411 1040T1316 791T1212 705Q1312 653 1357 584T1403 401Q1403 379 1399 329T1394 255Q1394 143 1485 143Q1590 143 1751 336V221Z"
/>
<glyph unicode="L" glyph-name="L" horiz-adv-x="1300" d="M1323 221Q1086 -20 838 -20Q766 -20 700 -2T538 61T369 125Q234 -23 125 -23Q87 -23 62 2T37 63Q37 139 111 196T322 276Q379 354 395 428T420 674Q437 1026 608 1225T981 1425Q1119 1425 1207 1338T1296
1114Q1296 957 1203 839T989 721Q926 721 890 755T854 850Q854 881 866 922Q893 891 934 891Q1002 891 1053 972T1104 1165Q1104 1251 1065 1300T958 1350Q876 1350 831 1291T767 1150T729 885T661 561T483 283Q568 289 630 273T809 213T1010 168Q1174 168 1323
336V221Z" />
<glyph unicode="M" glyph-name="M" horiz-adv-x="2048" d="M2071 221Q1847 -20 1663 -20Q1551 -20 1493 88T1434 377Q1434 517 1491 762T1640 1174L1698 1278Q1579 1154 1503 1007T1322 594T1162 233T1059 77T971 -2T836 -20Q799 -20 799 0Q799 2 812 63T838 258T858
715T952 1268Q858 1161 760 770L735 672Q632 265 499 123T238 -20Q159 -20 99 30T39 145Q39 195 111 257T203 319Q225 319 232 304T250 222T283 134T340 113Q417 113 510 267T680 745L709 866Q744 1014 778 1102T868 1278Q949 1404 967 1412T1037 1426T1139 1432Q1159
1432 1159 1409Q1159 1398 1153 1364Q1134 1224 1135 1083L1137 815Q1139 465 1081 250Q1134 314 1235 580Q1381 957 1501 1146Q1558 1237 1638 1320T1750 1410Q1856 1430 1929 1430Q1956 1430 1956 1415Q1956 1394 1923 1321Q1845 1145 1778 845T1710 367Q1710
166 1833 166Q1933 166 2071 336V221Z" />
<glyph unicode="N" glyph-name="N" horiz-adv-x="1812" d="M1266 276Q1350 490 1430 899Q1486 1197 1561 1311T1737 1425Q1819 1425 1819 1331Q1819 1277 1799 1255T1714 1223T1599 1152T1505 896L1432 563Q1393 390 1344 261T1262 70T1219 1T1169 -10L1061 -23Q1023
-25 1020 -8T1010 121T995 288T937 591T870 1090Q863 1086 787 807T682 433T602 231T471 50T281 -23Q185 -23 127 37T68 150Q68 182 138 247T238 313Q270 313 278 243T313 137T379 102Q528 102 672 670L702 791Q787 1119 838 1266L870 1360Q881 1391 891 1398T944
1411L1049 1425Q1072 1429 1084 1429Q1106 1429 1113 1418T1120 1376Q1120 1159 1186 793T1266 276Z" />
<glyph unicode="O" glyph-name="O" horiz-adv-x="1300" d="M791 1409Q564 1192 461 947T358 473Q358 327 416 243T573 158Q771 158 985 504T1200 1147Q1200 1235 1172 1287T1096 1339Q1009 1339 935 1208T860 975Q860 902 928 893Q956 890 956 866Q956 822 911
780T817 737Q757 737 717 791T676 928Q676 1101 806 1263T1073 1425Q1166 1425 1220 1352T1274 1149Q1274 900 1136 619T791 158T401 -23Q259 -23 167 97T74 406Q74 607 154 813T364 1180T569 1383T791 1425V1409Z" />
<glyph unicode="P" glyph-name="P" horiz-adv-x="1386" d="M928 1427Q1139 1427 1264 1325T1389 1051Q1389 893 1297 798T1137 702Q1112 702 1081 724T1049 764Q1049 774 1096 836Q1206 972 1206 1106Q1206 1219 1130 1285T924 1352Q728 1352 569 1233T410 971Q410
877 496 842Q530 827 530 801Q530 774 455 738T350 702Q305 702 265 761T225 891Q225 1079 427 1253T928 1427ZM1116 1167Q1050 1108 1020 1030T959 703T859 311T640 73T311 -23Q184 -23 105 40T25 201Q25 238 48 261T142 325T238 365Q255 365 267 354T279 326Q279
316 270 252T260 176Q260 57 360 57Q473 57 550 189T661 603T766 1001T929 1165T1059 1214Q1084 1214 1116 1167Z" />
<glyph unicode="Q" glyph-name="Q" horiz-adv-x="1300" d="M1323 221Q1200 96 1117 37T967 -23Q904 -23 857 18T743 141Q539 -23 373 -23Q228 -23 136 96T43 403Q43 604 122 807T322 1165T522 1373T760 1425L762 1411Q534 1197 431 948T328 471Q328 323 386 240T545
156Q612 156 698 209Q648 280 618 303T547 326Q544 326 528 323T508 319Q494 319 494 332Q494 358 553 408T674 459Q721 459 759 433T850 354Q1169 761 1169 1147Q1169 1234 1141 1285T1065 1337Q978 1337 904 1206T829 975Q829 900 897 891Q926 888 926 866Q926
821 881 779T786 737Q726 737 686 790T645 926Q645 1099 775 1262T1040 1425Q1135 1425 1189 1351T1243 1145Q1243 734 895 291Q989 152 1069 152Q1169 152 1323 336V221Z" />
<glyph unicode="R" glyph-name="R" horiz-adv-x="1642" d="M1665 221Q1548 95 1456 36T1270 -23Q1172 -23 1113 41T1053 209Q1053 271 1081 380T1110 547Q1110 640 1049 643Q1012 646 1012 678Q1012 737 1055 737L1122 733Q1216 733 1271 825T1327 1047Q1327 1350
983 1350Q764 1350 594 1232T424 967Q424 884 506 842Q545 822 545 793Q545 767 469 734T365 700Q321 700 286 757T250 889Q250 1111 475 1269T1024 1427Q1296 1427 1447 1310T1599 1026Q1599 921 1516 822T1188 668Q1277 617 1317 558T1358 408Q1358 358 1348
296T1337 217Q1337 131 1405 131Q1496 131 1665 336V221ZM1151 1178Q1069 1111 1041 1035T985 756T922 432T798 204T586 37T328 -23Q184 -23 113 46T41 207Q41 236 63 259T156 322T252 362Q285 362 285 324Q285 315 275 256T264 186Q264 130 296 94T377 57Q481
57 561 189T673 578T759 952T913 1140T1096 1212Q1119 1212 1151 1178Z" />
<glyph unicode="S" glyph-name="S" horiz-adv-x="1153" d="M1067 1245Q1067 1206 938 1053H920Q900 1061 895 1112Q884 1215 824 1280T680 1346Q601 1346 544 1289T487 1151Q487 1093 523 1027T710 816T905 587T948 424Q948 246 794 111T432 -25Q261 -25 150 54T39
184Q39 212 100 314T170 416Q202 416 215 398T234 329Q249 173 309 114T467 55Q573 55 652 128T731 299Q731 349 701 405T528 597T341 827T297 1010Q297 1165 414 1295T725 1425Q872 1425 969 1358T1067 1245Z" />
<glyph unicode="T" glyph-name="T" horiz-adv-x="1386" d="M1395 1362Q1366 1147 1212 1147Q1158 1147 1005 1195T741 1243Q598 1243 494 1137T389 952Q389 875 485 815Q524 790 524 770Q524 743 469 697T385 651Q338 651 297 705T256 823Q256 947 357 1093T621
1332T963 1425Q1084 1425 1192 1389T1327 1352Q1351 1352 1368 1366L1374 1368L1395 1362ZM1020 1055Q1059 1055 1059 1030L1035 897L1030 650Q1025 529 993 427Q964 332 912 254Q865 182 799 127Q738 76 665 41Q597 9 522 -7Q453 -23 383 -23Q220 -23 128 47T35
184Q35 222 103 282T207 342Q250 342 250 262Q250 132 292 94T406 55Q521 55 607 128T724 302T755 602T784 874T889 1002T1020 1055Z" />
<glyph unicode="U" glyph-name="U" horiz-adv-x="1556" d="M1579 221Q1351 -23 1188 -23Q1103 -23 1029 54T961 313Q786 -23 563 -23Q455 -23 390 60T324 283Q324 434 446 782Q549 1080 549 1178Q549 1248 517 1290T432 1333Q353 1333 279 1240T205 1044Q205 954
272 893Q297 871 297 856Q297 823 253 775T174 727Q133 727 96 786T59 915Q59 1106 197 1265T498 1425Q626 1425 706 1326T786 1065Q786 876 668 545Q586 316 586 236Q586 184 609 155T674 125Q751 125 821 229T932 447T1033 780L1120 1091Q1156 1215 1183 1294T1217
1384T1242 1399T1309 1409L1452 1425Q1483 1425 1479 1411L1432 1241Q1366 1006 1292 684T1217 274Q1217 208 1242 169T1309 129Q1356 129 1411 170T1579 336V221Z" />
<glyph unicode="V" glyph-name="V" horiz-adv-x="1386" d="M1268 1425Q1300 1425 1333 1327T1366 1124Q1366 891 1263 608T998 151T662 -23Q521 -23 433 77T344 338Q344 489 453 778Q553 1053 553 1171Q553 1249 523 1292T440 1335Q358 1335 286 1244T213 1047Q213
962 257 921T301 858Q301 822 258 775T180 727Q138 727 102 784T66 913Q66 1095 196 1261T502 1427Q636 1427 716 1327T797 1057Q797 979 777 881T680 574T602 256Q602 185 643 139T748 92Q844 92 949 206T1123 503T1192 856Q1192 1017 1094 1204Q1063 1260 1063
1282Q1063 1320 1150 1372T1268 1425Z" />
<glyph unicode="W" glyph-name="W" horiz-adv-x="1962" d="M961 315Q781 -23 569 -23Q458 -23 391 58T324 274Q324 430 435 748T547 1198Q547 1257 514 1296T430 1335Q353 1335 277 1241T201 1049Q201 974 269 893Q297 859 297 846Q297 831 254 779T180 727Q147
727 105 775T63 918Q63 1111 198 1269T498 1427Q621 1427 706 1325T791 1071Q791 911 689 619T586 227Q586 180 610 153T674 125Q761 125 847 267T1004 674L1098 1026Q1153 1234 1221 1389Q1228 1406 1314 1415T1440 1425Q1479 1425 1479 1409L1296 711Q1217 404
1217 262Q1217 200 1243 164T1313 127Q1378 127 1490 233T1680 505T1757 844Q1757 1029 1667 1212Q1642 1265 1642 1278Q1642 1321 1724 1373T1843 1425Q1877 1425 1911 1335T1946 1145Q1946 882 1823 607T1517 154T1186 -23Q1081 -23 1020 61T961 315Z" />
<glyph unicode="X" glyph-name="X" horiz-adv-x="1473" d="M1495 221Q1389 110 1253 44T1008 -23Q879 -23 780 81T670 397Q470 -23 238 -23Q156 -23 103 34T49 123Q49 146 128 219T231 293Q254 293 262 248T300 174T369 145Q452 145 545 322T707 765T776 1141Q776
1230 739 1282T637 1335Q543 1335 454 1234T365 1026Q365 895 500 895Q537 895 537 874Q537 856 488 788T379 719Q314 719 266 779T217 924Q217 1095 369 1260T707 1425Q844 1425 928 1335T1012 1049Q1104 1242 1190 1333T1348 1425Q1395 1425 1435 1392T1475 1321Q1475
1280 1430 1223T1360 1165Q1341 1165 1317 1208T1260 1251Q1198 1251 1122 1100T987 724T928 385Q928 268 987 198T1145 127Q1319 127 1495 336V221Z" />
<glyph unicode="Y" glyph-name="Y" horiz-adv-x="1556" d="M1579 221Q1479 97 1212 14Q1117 -258 979 -387T692 -516Q616 -516 570 -475T524 -365Q524 -150 948 -2L971 92Q1070 495 1094 573L1151 764Q1140 743 1104 663Q931 275 796 133T530 -10Q430 -10 368
68T305 272Q305 430 417 754T530 1186Q530 1252 496 1295T408 1339Q326 1339 254 1248T182 1053Q182 958 250 899Q274 877 274 864Q274 834 235 782T156 729Q114 729 76 788T37 913Q37 1090 167 1261T477 1432Q605 1432 686 1332T768 1071Q768 879 645 539Q561
304 561 207Q561 117 627 117Q749 117 939 483T1282 1366Q1289 1392 1306 1400T1426 1420T1536 1432Q1562 1432 1559 1417L1505 1200L1350 522Q1318 382 1243 109Q1449 174 1579 336V221ZM924 -90Q774 -141 687 -215T600 -356Q600 -393 626 -417T690 -442Q765 -442
819 -356T924 -90Z" />
<glyph unicode="Z" glyph-name="Z" horiz-adv-x="1153" d="M1176 221Q1044 95 931 36T686 -23Q601 -23 472 30T260 84Q207 84 182 68T143 10Q132 -23 111 -23Q64 -23 52 -19T39 2Q39 22 91 129T263 392T649 829L717 901Q909 1105 965 1194Q897 1159 809 1159Q734
1159 613 1186T438 1214Q360 1214 310 1177T260 1081Q260 1028 310 986T360 920Q360 891 311 848T242 805Q209 805 176 855T143 961Q143 1128 291 1277T604 1427Q647 1427 781 1400T967 1372Q1037 1372 1069 1398T1114 1425Q1151 1425 1151 1409Q1151 1360 1105
1273T992 1102T678 748T367 403T256 242Q350 269 385 276T479 283Q581 283 724 233T936 182Q999 182 1053 220T1176 336V221Z" />
<glyph unicode="[" glyph-name="bracketleft" horiz-adv-x="981" d="M997 1427L971 1335H752L309 -367H528L502 -459H37L528 1427H997Z" />
<glyph unicode="\" glyph-name="backslash" horiz-adv-x="812" d="M756 -453H526L78 1430H309L756 -453Z" />
<glyph unicode="]" glyph-name="bracketright" horiz-adv-x="981" d="M979 1427L477 -459H12L33 -367H256L705 1335H485L510 1427H979Z" />
<glyph unicode="^" glyph-name="asciicircum" horiz-adv-x="1167" d="M1106 666H946L651 1178L360 666H209L618 1384H700L1106 666Z" />
<glyph unicode="_" glyph-name="underscore" horiz-adv-x="1024" d="M1040 -256H-20V-154H1040V-256Z" />
<glyph unicode="`" glyph-name="grave" horiz-adv-x="682" d="M414 975L367 948Q136 1085 31 1298L262 1337Q288 1165 414 975Z" />
<glyph unicode="a" glyph-name="a" horiz-adv-x="1067" d="M1090 221Q930 69 861 23T729 -23Q571 -23 580 256Q480 113 396 45T221 -23Q133 -23 72 59T10 262Q10 412 92 548T304 768T532 852Q657 852 707 737L911 850H967L879 557Q811 336 811 254Q811 168 872
168Q911 168 958 209T1090 336V221ZM358 166Q458 166 546 336T635 651Q635 707 610 738T543 770Q443 770 354 600T264 287Q264 233 290 200T358 166Z" />
<glyph unicode="b" glyph-name="b" horiz-adv-x="897" d="M920 221Q851 147 752 147Q674 147 586 221Q479 98 397 39T217 -20Q130 -20 71 52T12 231Q12 440 134 794T373 1331Q505 1373 605 1399T721 1425Q750 1425 771 1387T793 1294Q793 1182 700 1032T459 733L328
602Q266 384 266 281Q266 224 292 190T360 156Q409 156 448 187T537 283Q487 369 487 459Q487 604 565 727T733 850Q768 850 790 819T813 737Q813 573 629 289Q684 221 754 221Q798 221 830 241T920 336V221ZM377 756Q539 915 623 1049T707 1253Q707 1281 695 1299T664
1317Q547 1317 377 756Z" />
<glyph unicode="c" glyph-name="c" horiz-adv-x="748" d="M770 221Q642 95 536 36T313 -23Q183 -23 99 61T14 276Q14 489 169 669T506 850Q595 850 651 801T707 672Q707 644 697 630T657 602L541 547Q520 537 510 537Q496 537 496 557Q496 565 502 609T508 664Q508
708 490 735T440 762Q367 762 307 654T246 408Q246 289 303 218T455 147Q536 147 607 193T770 336V221Z" />
<glyph unicode="d" glyph-name="d" horiz-adv-x="1067" d="M1090 221Q946 78 871 28T737 -23Q666 -23 625 46T582 248Q500 115 404 46T229 -23Q144 -23 79 57T14 246Q14 469 176 659T526 850Q578 850 607 835T672 784L815 1382Q990 1423 1051 1423Q1071 1423 1071
1407Q1071 1396 1021 1200Q821 416 821 254Q821 216 837 193T879 170Q943 170 1090 336V221ZM367 168Q465 168 550 334T635 645Q635 704 609 739T539 774Q446 774 359 601T272 287Q272 232 297 200T367 168Z" />
<glyph unicode="e" glyph-name="e" horiz-adv-x="748" d="M770 221Q643 96 542 37T319 -23Q183 -23 100 64T16 293Q16 505 163 676T489 848Q582 848 638 800T694 674Q694 467 254 338Q294 143 463 143Q529 143 589 178T770 336V221ZM246 406Q502 478 502 672Q502
768 432 768Q366 768 306 668T246 406Z" />
<glyph unicode="f" glyph-name="f" horiz-adv-x="811" d="M834 221Q730 104 628 41T446 -23Q408 -23 342 6Q300 -214 268 -469Q164 -483 18 -512Q50 -238 129 199Q118 218 90 295L23 221H0V311L190 508Q245 777 279 897T374 1162T451 1329T528 1370T660 1407T735
1425Q773 1425 797 1376T821 1245Q821 1105 747 975T467 655L383 238Q432 133 530 133Q670 133 834 336V221ZM498 791Q615 893 681 1010T748 1227Q748 1269 733 1296T694 1323Q650 1323 605 1208T498 791Z" />
<glyph unicode="g" glyph-name="g" horiz-adv-x="981" d="M1004 221Q877 88 700 25Q617 -234 490 -374T219 -514Q141 -514 93 -465T45 -336Q45 -229 140 -144T465 20L508 217Q412 109 342 59T201 8Q118 8 65 86T12 289Q12 493 167 671T498 850Q595 850 670 768Q715
784 787 816L858 848H881Q842 730 821 618L727 117Q862 168 1004 336V221ZM360 188Q431 188 486 272T571 485T602 664Q602 711 579 741T520 772Q414 772 335 629T256 338Q256 269 284 229T360 188ZM444 -68Q121 -184 121 -336Q121 -381 148 -409T217 -438Q289 -438
342 -347T444 -68Z" />
<glyph unicode="h" glyph-name="h" horiz-adv-x="981" d="M1004 221Q767 -25 614 -25Q546 -25 502 21T457 139Q457 259 549 477Q598 595 598 631Q598 672 559 672Q519 672 443 618T283 469Q248 285 248 27L25 -25Q12 80 12 203Q12 501 94 758T352 1303Q483 1356
580 1389T692 1423Q718 1423 736 1381T754 1276Q754 1170 689 1042T485 731Q618 808 662 828T752 848Q803 848 834 812T866 715Q866 625 795 436T723 199Q723 177 736 160T768 143Q832 143 1004 336V221ZM311 631Q668 1046 668 1243Q668 1303 635 1303Q580 1303
478 1106T311 631Z" />
<glyph unicode="i" glyph-name="i" horiz-adv-x="492" d="M494 1239Q494 999 317 999Q231 999 170 1051Q228 1139 260 1249Q339 1200 387 1200Q441 1200 494 1239ZM514 221Q280 -25 164 -25Q100 -25 56 40T12 205Q12 418 156 795L410 848H422L322 535Q260 341
260 258Q260 225 274 205T311 184Q350 184 389 212T514 336V221Z" />
<glyph unicode="j" glyph-name="j" horiz-adv-x="748" d="M748 1241Q729 997 545 997Q459 997 393 1055Q480 1166 496 1247Q576 1198 629 1198Q689 1198 748 1241ZM770 221Q676 126 537 51Q500 -222 398 -368T188 -514Q121 -514 74 -459T27 -322Q27 -126 291 8L365
610Q157 350 23 221H0V311Q133 438 358 731L420 811Q525 823 655 850Q611 612 551 147Q643 193 768 334L770 221ZM285 -84Q201 -123 153 -189T104 -326Q104 -371 125 -402T174 -434Q243 -434 264 -258L285 -84Z" />
<glyph unicode="k" glyph-name="k" horiz-adv-x="981" d="M1004 223Q777 -25 627 -25Q555 -25 506 25T457 150Q457 185 469 255T481 334Q481 380 429 381T377 422Q377 456 391 469T446 483Q556 486 610 528T664 629Q664 670 635 696T559 723Q534 723 511 717Q487
711 465 699Q442 686 417 666Q393 645 366 615Q340 586 309 546Q293 525 269 349Q257 258 253 181Q249 109 252 18L25 -20Q12 56 12 166Q12 466 93 739T358 1300Q501 1358 605 1390T721 1423Q745 1423 768 1375T791 1274Q791 1185 732 1080T549 825Q634 850 690
850Q783 850 842 803T901 682Q901 516 602 438Q719 411 719 301L713 211Q713 150 770 150Q810 150 861 189T1004 338V223ZM348 705L414 778Q707 1108 707 1243Q707 1305 653 1305Q591 1305 511 1159T348 705Z" />
<glyph unicode="l" glyph-name="l" horiz-adv-x="662" d="M684 221Q548 96 446 37T250 -23Q143 -23 78 60T12 283Q12 493 103 787T324 1329L578 1423Q590 1427 596 1427Q625 1427 643 1385T662 1270Q662 1066 568 875T274 467Q266 363 266 324Q266 237 298 186T383
135Q437 135 498 174T684 336V221ZM301 612Q428 753 507 928T586 1229Q586 1266 575 1288T547 1311Q510 1311 440 1127T301 612Z" />
<glyph unicode="m" glyph-name="m" horiz-adv-x="1473" d="M1495 221Q1370 99 1281 38T1108 -23Q1042 -23 1004 22T965 145Q965 253 1019 419T1073 621Q1073 653 1040 653Q1030 653 1016 646Q1001 639 982 626Q963 612 941 592Q919 572 895 546Q869 520 843 489Q799
437 791 402L758 259L698 23L444 -23L541 389Q552 434 567 521T582 625Q582 659 559 659Q552 659 539 652Q524 645 505 631Q483 615 458 593Q431 569 400 538Q367 505 332 465Q284 411 272 339Q256 253 250 185Q243 117 242 33L20 -20Q12 95 12 172Q12 355 50 490T174
807L416 854Q351 691 315 539Q584 852 727 852Q779 852 811 810T844 698Q844 666 834 580Q1003 749 1076 800T1212 852Q1267 852 1302 808T1337 696Q1337 589 1278 421T1219 199Q1219 143 1260 143Q1286 143 1332 177T1495 336V221Z" />
<glyph unicode="n" glyph-name="n" horiz-adv-x="981" d="M1004 221Q773 -23 608 -23Q541 -23 500 24T459 150Q459 257 547 477Q594 595 594 627Q594 659 569 659Q555 659 532 645Q511 631 483 606Q458 583 427 550Q400 522 369 486L313 421Q276 376 267 326Q252
241 247 170Q244 117 244 27L23 -25Q12 110 12 176Q12 337 49 481T170 805L414 852Q337 645 313 526Q477 709 573 779T745 850Q796 850 830 812T864 715Q864 619 778 399Q719 248 719 203Q719 143 768 143Q841 143 1004 336V221Z" />
<glyph unicode="o" glyph-name="o" horiz-adv-x="897" d="M920 221Q869 176 821 158T745 139Q673 139 602 195Q458 -23 272 -23Q156 -23 84 64T12 295Q12 523 174 686T561 850Q646 850 685 832T734 788T743 725Q743 538 641 266Q692 219 748 219Q815 219 920 336V221ZM590
780Q575 786 547 786Q417 786 344 650T270 332Q270 231 302 175T391 119Q462 119 545 250Q451 368 451 504Q451 664 590 780Z" />
<glyph unicode="p" glyph-name="p" horiz-adv-x="1153" d="M500 678Q572 765 636 806T778 848Q879 848 942 771T1006 567Q1006 346 854 162T522 -23Q472 -23 443 -12T367 39Q295 -278 274 -469L20 -514Q91 -46 201 434Q69 261 23 221H0V311Q190 516 313 809L539
850L500 678ZM385 143Q437 57 500 57Q601 57 678 210T756 510Q756 587 725 634T643 682Q604 682 561 647T496 566T446 403L385 143Z" />
<glyph unicode="q" glyph-name="q" horiz-adv-x="1067" d="M1090 221Q713 -168 614 -467Q451 -487 356 -514L563 203Q386 -23 221 -23Q130 -23 70 46T10 223Q10 368 93 517T308 759T567 852Q698 852 741 729Q846 787 920 852H987L725 -90Q890 141 1090 336V221ZM354
154Q467 154 568 338T670 657Q670 708 644 741T580 774Q461 774 363 580T264 246Q264 208 290 181T354 154Z" />
<glyph unicode="r" glyph-name="r" horiz-adv-x="748" d="M770 221Q519 -25 383 -25Q322 -25 280 26T238 154Q238 295 389 532Q315 494 227 479Q162 359 23 221H0V311Q78 392 141 485Q55 523 55 598Q55 675 107 762T252 850Q330 850 330 770Q330 707 285 590Q451
608 575 844L666 848L573 592Q515 430 498 372T481 268Q481 226 500 201T553 176Q589 176 622 200T770 336V221Z" />
<glyph unicode="s" glyph-name="s" horiz-adv-x="831" d="M330 807Q399 825 469 836T553 848Q563 848 563 840Q563 825 555 809Q539 763 539 721Q539 669 599 579T659 412Q659 259 513 117T209 -25Q141 -25 85 11T29 88Q29 112 84 179T164 246Q196 246 221 164T307
82Q368 82 421 138T475 260Q475 323 407 428T317 604Q201 417 23 221H0V311Q245 572 330 807Z" />
<glyph unicode="t" glyph-name="t" horiz-adv-x="575" d="M598 221Q472 96 380 37T205 -23Q119 -23 66 49T12 240Q12 344 62 515L106 666L29 662L61 819L156 823L250 1135L518 1190L416 842L555 850L522 696L367 684L300 460Q266 343 266 274Q266 227 289 198T350
168Q401 168 451 200T598 336V221Z" />
<glyph unicode="u" glyph-name="u" horiz-adv-x="1067" d="M1090 221Q958 96 869 37T709 -23Q630 -23 588 40T545 211Q435 90 348 33T178 -25Q102 -25 56 38T10 209Q10 417 150 795L416 848Q252 369 252 233Q252 137 324 137Q376 137 453 221T549 369L680 795L952
850Q858 549 823 427T788 256Q788 162 852 162Q904 162 1006 257L1090 336V221Z" />
<glyph unicode="v" glyph-name="v" horiz-adv-x="897" d="M920 221Q874 181 827 164T754 147Q681 147 610 203Q432 -23 233 -23Q129 -23 71 48T12 248Q12 389 82 594L152 799L424 850L303 489Q284 430 267 349T250 233Q250 179 278 143T348 106Q444 106 555 270Q504
372 504 475Q504 618 579 733T745 848Q813 848 813 743Q813 540 649 274Q700 227 756 227Q824 227 920 336V221Z" />
<glyph unicode="w" glyph-name="w" horiz-adv-x="1386" d="M1409 221Q1361 181 1313 164T1239 147Q1166 147 1096 203Q914 -23 721 -23Q579 -23 518 133Q384 -23 229 -23Q128 -23 70 43T12 227Q12 353 47 483T156 801L420 850L346 627Q252 337 252 227Q252 175
277 142T340 109Q420 109 500 233Q500 390 557 559L639 801L907 850L795 504Q741 337 741 240Q741 181 767 146T836 111Q889 111 936 150T1042 268Q989 365 989 469Q989 619 1064 734T1233 850Q1298 850 1298 752Q1298 541 1135 274Q1185 227 1241 227Q1308 227
1409 336V221Z" />
<glyph unicode="x" glyph-name="x" horiz-adv-x="1153" d="M1176 221Q927 -25 741 -25Q565 -25 510 178Q410 -25 240 -25Q171 -25 114 13T57 94Q57 114 115 163T184 213Q200 213 215 170Q248 80 309 80Q375 80 426 180T506 430T535 614Q535 721 457 721Q359 721
197 446Q111 300 23 221H0V311Q53 363 117 465Q241 665 341 756T543 848Q710 848 743 653Q793 754 847 801T979 848Q1055 848 1094 802T1133 713Q1133 699 1077 646T999 592Q985 592 984 628T964 699T913 733Q835 733 777 527T719 213Q719 156 748 121T823 86Q956
86 1176 336V221Z" />
<glyph unicode="y" glyph-name="y" horiz-adv-x="1067" d="M1090 221Q963 98 684 -31Q591 -295 475 -404T233 -514Q169 -514 131 -475T92 -371Q92 -174 453 -14L514 201Q325 -10 182 -10Q105 -10 58 53T10 221Q10 372 76 545L172 799L463 850L338 553Q252 338
252 229Q252 139 313 139Q375 139 454 239T588 485L702 799L975 850L715 68Q944 173 1090 336V221ZM424 -113Q301 -168 235 -236T168 -371Q168 -438 225 -438Q336 -438 424 -113Z" />
<glyph unicode="z" glyph-name="z" horiz-adv-x="981" d="M1004 221Q868 71 800 23T664 -25Q626 -25 525 8T371 41Q306 41 277 8T238 -25Q188 -25 178 -24T168 -16Q168 6 339 215L684 635Q626 623 559 623Q469 623 373 653Q193 395 23 221H0V311Q127 441 244 602T381
806T412 848Q419 848 504 835T641 821Q735 821 813 834T905 848Q924 848 924 838Q924 801 763 608L440 217Q480 221 506 221Q525 221 635 199T768 176Q830 176 874 209T1004 336V221Z" />
<glyph unicode="{" glyph-name="braceleft" horiz-adv-x="807" d="M717 -416Q521 -417 413 -319T305 -94Q305 -35 331 71T358 244Q358 422 164 455V514Q358 549 358 733Q358 807 333 908T307 1061Q307 1179 411 1280T717 1384V1339Q522 1298 522 1151Q522 1095
546 993T571 815Q571 716 495 623T244 485Q433 431 503 338T573 154Q573 90 549 -8T524 -172Q524 -332 717 -371V-416Z" />
<glyph unicode="|" glyph-name="bar" horiz-adv-x="1118" d="M639 -512H479V1536H639V-512Z" />
<glyph unicode="}" glyph-name="braceright" horiz-adv-x="807" d="M643 453Q449 418 449 236Q449 175 469 86Q500 -31 500 -92Q500 -210 395 -311T90 -416V-371Q285 -333 285 -182Q285 -129 261 -26T236 154Q236 254 313 347T563 481Q384 533 309 626T233 813Q233
862 258 969T283 1141Q283 1301 90 1339V1384Q286 1386 394 1288T502 1063Q502 992 476 892T449 723Q449 547 643 514V453Z" />
<glyph unicode="~" glyph-name="asciitilde" horiz-adv-x="1366" d="M1227 829Q1221 677 1148 592T958 506Q899 506 837 526T605 616T373 686Q224 686 197 508H139Q143 677 220 754T399 831Q448 831 523 811T780 711Q928 647 993 647Q1148 647 1169 829H1227Z" />
</font>
</defs>
</svg>
